<svg xmlns="http://www.w3.org/2000/svg" viewBox="0 0 48 48">
<path fill="#333333" d="M30,6.251H0v5h30c1.38,0,2.5-1.119,2.5-2.5S31.38,6.251,30,6.251z"/>
<path fill="#999999" d="M30,5.5H0v5h30c1.38,0,2.5-1.119,2.5-2.5S31.38,5.5,30,5.5z"/>
<path fill="#333333" d="M30,21.875H0v5h30c1.38,0,2.5-1.119,2.5-2.5S31.38,21.875,30,21.875z"/>
<path fill="#999999" d="M30,21.124H0v4.999h30c1.38,0,2.5-1.118,2.5-2.499S31.38,21.124,30,21.124z"/>
<path fill="#333333" d="M30,37.501H0v5h30c1.38,0,2.5-1.119,2.5-2.5S31.38,37.501,30,37.501z"/>
<path fill="#999999" d="M30,36.749H0v5h30c1.38,0,2.5-1.119,2.5-2.5S31.38,36.749,30,36.749z"/>
</svg>
